<svg width="27" height="24" viewBox="0 0 27 24" fill="none" xmlns="http://www.w3.org/2000/svg">
<path d="M19.2247 5.73379C19.2247 2.78889 16.8152 0.379379 13.8703 0.379379C10.9254 0.379379 8.51587 2.78889 8.51587 5.73379C8.51587 8.67868 10.9254 11.0882 13.8703 11.0882C16.8152 11.0882 19.2247 8.67868 19.2247 5.73379ZM9.7515 5.73379L12.3258 4.23041C12.7376 3.98328 13.2525 4.29219 13.2525 4.76585V5.73374C13.2525 6.08383 13.5202 6.35155 13.8703 6.35155H17.9273C17.639 8.32857 15.9297 9.85251 13.8703 9.85251C11.605 9.85251 9.75155 7.99906 9.75155 5.73374L9.7515 5.73379Z" fill="white"/>
<path d="M24.2909 16.5869C24.1261 16.2985 23.7349 16.1956 23.4465 16.3603C23.1582 16.5251 23.0552 16.9163 23.22 17.2047L25.4441 21.0352C25.5471 21.1999 25.6089 21.3853 25.6089 21.5912C25.6089 22.1678 25.1558 22.6209 24.5792 22.6209H21.5519L22.2109 14.7335C22.2521 14.2187 22.0873 13.7038 21.7373 13.3331C21.3872 12.9625 20.8723 12.7359 20.3575 12.7359H7.21885C6.70398 12.7359 6.18916 12.9624 5.83909 13.3537C5.48902 13.745 5.32422 14.2598 5.36545 14.7953L6.18921 22.6417H3.16193C2.5853 22.6417 2.13224 22.1886 2.13224 21.612C2.13224 21.4266 2.19402 21.2413 2.2764 21.0765C2.29699 21.0559 4.52115 17.2255 4.52115 17.2255C4.6859 16.9372 4.58293 16.5459 4.29462 16.3811C4.0063 16.2164 3.615 16.3194 3.45025 16.6077L1.2673 20.3558C1.02017 20.7264 0.896606 21.1589 0.896606 21.5914C0.896606 22.8476 1.90573 23.8567 3.16193 23.8567H6.86883H6.93061H12.6145H12.6351H24.5796C25.8358 23.8567 26.8449 22.8476 26.8449 21.5914C26.8449 21.1589 26.7213 20.7264 26.4742 20.3558L24.2912 16.5871L24.2909 16.5869ZM13.6645 19.3259C12.9848 19.3259 12.4288 18.7699 12.4288 18.0902C12.4288 17.4106 12.9848 16.8546 13.6645 16.8546C14.3441 16.8546 14.9001 17.4106 14.9001 18.0902C14.9001 18.7699 14.3441 19.3259 13.6645 19.3259Z" fill="white"/>
</svg>
